<svg width="16" height="16" xmlns="http://www.w3.org/2000/svg"><path d="M7.977 0a7.977 7.977 0 0 0-2.521 15.547c.398.073.544-.174.544-.385 0-.189-.007-.691-.011-1.357-2.219.482-2.687-1.069-2.687-1.069-.363-.922-.886-1.167-.886-1.167-.724-.495.055-.485.055-.485.801.056 1.222.822 1.222.822.712 1.219 1.867.867 2.322.663.072-.516.279-.867.506-1.066-1.771-.202-3.633-.886-3.633-3.943 0-.871.311-1.583.821-2.141-.082-.201-.356-1.012.078-2.111 0 0 .67-.214 2.194.818a7.677 7.677 0 0 1 1.997-.269c.677.003 1.36.092 1.997.269 1.523-1.032 2.191-.818 2.191-.818.435 1.098.161 1.909.079 2.111.511.558.82 1.27.82 2.141 0 3.064-1.865 3.739-3.642 3.936.286.246.542.733.542 1.477 0 1.066-.01 1.927-.01 2.188 0 .213.144.461.549.384A7.979 7.979 0 0 0 7.977 0z" fill="#FFF"/></svg>