<svg width="16" height="16" xmlns="http://www.w3.org/2000/svg">
  <path d="M7.977,0C3.572,0,0,3.571,0,7.978c0,3.524,2.285,6.514,5.456,7.569C5.854,15.62,6,15.373,6,15.162c0-0.189-0.007-0.691-0.011-1.357c-2.219,0.482-2.687-1.069-2.687-1.069c-0.363-0.922-0.886-1.167-0.886-1.167c-0.724-0.495,0.055-0.485,0.055-0.485c0.801,0.056,1.222,0.822,1.222,0.822c0.712,1.219,1.867,0.867,2.322,0.663c0.072-0.516,0.279-0.867,0.506-1.066C4.75,11.301,2.888,10.617,2.888,7.56c0-0.871,0.311-1.583,0.821-2.141C3.627,5.218,3.353,4.407,3.787,3.308c0,0,0.67-0.214,2.194,0.818c0.636-0.177,1.319-0.265,1.997-0.269c0.677,0.003,1.36,0.092,1.997,0.269c1.523-1.032,2.191-0.818,2.191-0.818c0.435,1.098,0.161,1.909,0.079,2.111c0.511,0.558,0.82,1.27,0.82,2.141c0,3.064-1.865,3.739-3.642,3.936c0.286,0.246,0.542,0.733,0.542,1.477c0,1.066-0.01,1.927-0.01,2.188c0,0.213,0.144,0.461,0.549,0.384c3.167-1.057,5.451-4.045,5.451-7.568C15.954,3.571,12.382,0,7.977,0z" fill="#FFF" />
</svg>
