<svg xmlns="http://www.w3.org/2000/svg" width="538" height="380" viewBox="0 0 538 380">
  <path fill="#304057" d="M0 0h538v380H0V0z"/>
  <g transform="translate(0 12)">
    <circle fill="#FF6D8B" cx="16.002" cy="4" r="4"/>
    <circle fill="#FFCB4F" cx="32.002" cy="4" r="4"/>
    <circle fill="#7CE8DD" cx="48.002" cy="4" r="4"/>
    <linearGradient id="a" gradientUnits="userSpaceOnUse" x1="262.218" y1="84.751" x2="261.546" y2="84.751" gradientTransform="matrix(800 0 0 -2 -209236.5 187.5)">
      <stop offset="0" stop-color="#202D3F" stop-opacity="0"/>
      <stop offset=".5" stop-color="#0D1C30"/>
      <stop offset="1" stop-color="#202D3F" stop-opacity="0"/>
    </linearGradient>
    <path fill="url(#a)" d="M0 16.998h538v2H0v-2z"/>
    <path fill="#0D1C30" d="M508.994 2h18v4h-18V2z"/>
  </g>
  <path fill="#202D3F" d="M47 54h444v32H47V54zm.25 99.5h200v83h-200v-83zm.417-49.5h200v32h-200v-32zM47 254h444v81.5H47V254zm244.5-100.5h200v83h-200v-83zm0-49.5h200v32h-200v-32z"/>
</svg>
